<svg xmlns="http://www.w3.org/2000/svg" width="88.404" height="35.573" viewBox="0 0 88.404 35.573">
  <g id="logotipo-minu_light" transform="translate(44.202 17.786)">
    <g id="Grupo_2" data-name="Grupo 2" transform="translate(-44.202 -17.786)">
      <path id="Caminho_6" data-name="Caminho 6" d="M505.168,92.422v18.925a6.834,6.834,0,0,1-6.711,6.863,6.649,6.649,0,0,1-6.856-6.637V98.028a1.643,1.643,0,0,0-1.342-1.632,1.621,1.621,0,0,0-1.879,1.588v19.007a.938.938,0,0,1-.938.938h-3.3a.938.938,0,0,1-.938-.938V98.063a6.834,6.834,0,0,1,6.711-6.863,6.649,6.649,0,0,1,6.856,6.637V111.39a1.643,1.643,0,0,0,1.342,1.632,1.621,1.621,0,0,0,1.879-1.588V92.42a.938.938,0,0,1,.939-.938l3.3,0A.938.938,0,0,1,505.168,92.422Z" transform="translate(-437.878 -82.645)" fill="#fff"/>
      <path id="Caminho_7" data-name="Caminho 7" d="M25.183,97.984A1.621,1.621,0,0,0,23.3,96.4a1.643,1.643,0,0,0-1.342,1.632v13.319a6.834,6.834,0,0,1-6.711,6.863,6.65,6.65,0,0,1-6.856-6.637V98.028A1.643,1.643,0,0,0,7.052,96.4a1.621,1.621,0,0,0-1.879,1.588v19.007a.938.938,0,0,1-.938.938H.938A.938.938,0,0,1,0,116.991V98.063A6.834,6.834,0,0,1,6.711,91.2a6.65,6.65,0,0,1,6.856,6.637V111.39a1.643,1.643,0,0,0,1.342,1.632,1.621,1.621,0,0,0,1.879-1.588V98.063A6.834,6.834,0,0,1,23.5,91.2a6.65,6.65,0,0,1,6.856,6.637v19.153a.938.938,0,0,1-.938.938h-3.3a.938.938,0,0,1-.938-.938Z" transform="translate(0 -82.645)" fill="#fff"/>
      <path id="Caminho_8" data-name="Caminho 8" d="M376.748,94.2h3.3a.938.938,0,0,1,.938.938V119.71a.938.938,0,0,1-.938.938h-3.3a.938.938,0,0,1-.938-.938V95.139A.938.938,0,0,1,376.748,94.2Z" transform="translate(-340.557 -85.364)" fill="#fff"/>
      <path id="Caminho_9" data-name="Caminho 9" d="M779.756,94.2h3.3a.938.938,0,0,1,.938.938v17.517a8.251,8.251,0,0,1-8.152,8.281,8.024,8.024,0,0,1-8.247-8V95.139a.938.938,0,0,1,.938-.938h3.3a.938.938,0,0,1,.938.938v17.518a3.026,3.026,0,1,0,6.052.062V95.139A.938.938,0,0,1,779.756,94.2Z" transform="translate(-695.588 -85.364)" fill="#fff"/>
      <circle id="Elipse_1" data-name="Elipse 1" cx="3.024" cy="3.024" r="3.024" transform="translate(34.816)" fill="#fff"/>
    </g>
  </g>
</svg>
